<svg xmlns="http://www.w3.org/2000/svg" xmlns:xlink="http://www.w3.org/1999/xlink" width="500" zoomAndPan="magnify" viewBox="0 0 375 374.999991" height="500" preserveAspectRatio="xMidYMid meet" version="1.0"><defs><clipPath id="c01a8e99b4"><path d="M 112.5 112.5 L 227 112.5 L 227 227 L 112.5 227 Z M 112.5 112.5 " clip-rule="nonzero"/></clipPath></defs><path fill="#000000" d="M 209.101562 199.753906 L 199.753906 209.097656 L 218.726562 228.070312 L 228.074219 218.726562 Z M 209.101562 199.753906 " fill-opacity="1" fill-rule="nonzero"/><path fill="#000000" d="M 238.089844 258.035156 C 242.21875 262.164062 248.917969 262.164062 253.054688 258.035156 L 258.035156 253.046875 C 262.167969 248.914062 262.167969 242.21875 258.035156 238.089844 L 231.308594 211.367188 C 227.171875 207.230469 220.476562 207.230469 216.347656 211.359375 L 211.359375 216.347656 C 207.230469 220.476562 207.230469 227.183594 211.359375 231.3125 Z M 238.089844 258.035156 " fill-opacity="1" fill-rule="nonzero"/><g clip-path="url(#c01a8e99b4)"><path fill="#000000" d="M 112.429688 169.257812 C 112.429688 137.867188 137.867188 112.429688 169.257812 112.429688 C 200.648438 112.429688 226.089844 137.867188 226.089844 169.257812 C 226.089844 200.648438 200.648438 226.089844 169.257812 226.089844 C 137.867188 226.089844 112.429688 200.648438 112.429688 169.257812 Z M 215.570312 169.257812 C 215.570312 143.667969 194.84375 122.9375 169.257812 122.9375 C 143.667969 122.9375 122.941406 143.667969 122.941406 169.257812 C 122.941406 194.84375 143.667969 215.578125 169.257812 215.578125 C 194.84375 215.578125 215.570312 194.84375 215.570312 169.257812 Z M 215.570312 169.257812 " fill-opacity="1" fill-rule="nonzero"/></g><path fill="#000000" d="M 197.386719 180.910156 C 197.386719 158.242188 179.003906 139.851562 156.332031 139.851562 C 155.726562 139.851562 155.136719 139.917969 154.535156 139.945312 C 159.375 136.953125 165.070312 135.195312 171.171875 135.195312 C 188.703125 135.195312 202.910156 149.410156 202.910156 166.933594 C 202.910156 173.703125 200.78125 179.960938 197.171875 185.121094 C 197.324219 183.734375 197.386719 182.328125 197.386719 180.910156 Z M 197.386719 180.910156 " fill-opacity="1" fill-rule="nonzero"/></svg>